<?xml version="1.0" standalone="no"?>
<!DOCTYPE svg PUBLIC "-//W3C//DTD SVG 20010904//EN"
 "http://www.w3.org/TR/2001/REC-SVG-20010904/DTD/svg10.dtd">
<svg version="1.0" xmlns="http://www.w3.org/2000/svg"
 width="400.000000pt" height="400.000000pt" viewBox="0 0 400.000000 400.000000"
 preserveAspectRatio="xMidYMid meet">
<metadata>
Created by potrace 1.14, written by Peter Selinger 2001-2017
</metadata>
<g transform="translate(0.000000,400.000000) scale(0.100000,-0.100000)"
fill="#000000" stroke="none">
<path d="M735 3940 c-60 -31 -159 -90 -220 -131 -60 -41 -136 -87 -169 -104
-32 -16 -65 -40 -74 -53 -19 -28 -77 -359 -96 -547 -50 -479 -44 -1027 15
-1409 14 -88 -4 -137 -57 -154 -42 -13 -114 -4 -114 14 0 7 -4 16 -10 19 -7 4
-10 -55 -10 -170 0 -163 1 -176 18 -171 26 9 28 -50 2 -64 -23 -12 -27 -32 -5
-24 19 8 19 -7 0 -32 -12 -16 -14 -101 -15 -566 l0 -548 2000 0 2000 0 0 225
c0 193 -2 225 -15 225 -8 0 -15 5 -15 10 0 6 -8 10 -19 10 -24 0 -39 19 -47
58 -4 22 -10 29 -21 25 -13 -5 -12 -1 3 22 17 27 17 28 -2 42 -13 11 -15 17
-6 20 17 6 15 43 -2 43 -9 0 -16 12 -18 33 -2 22 -10 35 -25 42 -13 5 -23 15
-23 22 0 7 -11 13 -25 13 -19 0 -25 5 -25 22 0 17 -3 19 -12 10 -7 -7 -21 -12
-32 -12 -20 1 -20 1 -3 14 12 9 14 16 7 21 -6 4 -17 1 -25 -5 -9 -8 -15 -8
-15 -2 0 6 6 13 13 16 9 5 9 7 -1 12 -6 3 -9 11 -6 16 5 7 2 8 -5 4 -7 -5 -21
0 -31 9 -12 11 -28 15 -40 12 -16 -4 -20 -2 -16 9 3 9 1 12 -4 9 -5 -3 -26 6
-45 21 -20 15 -35 21 -33 14 5 -22 -17 -21 -27 2 -14 30 -35 36 -28 7 5 -18 3
-21 -11 -16 -10 4 -22 7 -27 7 -6 0 -8 4 -5 9 3 5 -8 11 -24 13 -17 3 -30 1
-30 -3 0 -5 -6 -6 -14 -3 -8 3 -17 1 -20 -5 -4 -5 -25 -8 -49 -6 -34 3 -38 2
-18 -6 13 -5 22 -12 19 -14 -8 -8 -58 13 -58 25 0 14 -27 12 -33 -2 -4 -9 -6
-9 -6 1 -1 8 6 23 15 33 14 14 14 20 4 33 -8 10 -9 15 -1 15 6 0 11 5 11 10 0
6 -8 10 -17 10 -14 0 -12 5 10 26 19 18 34 23 50 19 14 -4 17 -3 10 2 -9 7 4
25 46 66 32 31 61 57 65 57 11 0 172 129 223 178 7 8 11 18 8 23 -4 5 -2 9 4
9 5 0 16 13 24 28 l14 28 -51 1 c-65 0 -145 13 -152 24 -3 5 -15 9 -27 8 -20
-1 -20 -2 3 -9 21 -7 22 -8 5 -9 -11 -1 -30 6 -41 14 -12 8 -24 12 -26 9 -7
-7 -108 38 -108 48 0 4 -13 22 -29 41 -17 19 -31 47 -33 67 -2 27 -7 34 -20
32 -10 -2 -18 1 -18 6 0 5 8 12 18 15 9 2 25 8 35 12 16 7 18 3 16 -26 -7 -93
72 -155 196 -153 86 1 155 32 208 95 44 50 51 80 42 169 -6 57 -10 69 -27 73
-15 4 -19 11 -14 23 4 11 -2 26 -15 41 -17 17 -19 23 -7 23 15 0 34 -30 41
-65 3 -18 5 -18 11 -3 5 10 1 31 -8 49 -11 22 -13 36 -6 43 5 5 10 14 10 20 0
6 -5 5 -12 -2 -14 -14 -52 -16 -43 -2 3 5 0 8 -7 6 -7 -3 -47 -7 -88 -11 -61
-5 -79 -11 -95 -29 -25 -28 -75 -60 -83 -52 -3 3 -2 6 3 6 4 0 2 7 -5 15 -20
24 -30 18 -20 -11 6 -14 10 -26 10 -28 0 -2 -53 -6 -145 -9 -25 -1 -45 -6 -45
-11 0 -5 -7 -3 -15 4 -10 9 -15 9 -15 1 0 -6 -9 -11 -21 -11 -11 0 -17 -4 -14
-10 3 -5 1 -18 -4 -27 -10 -17 -10 -17 -11 0 0 10 -5 15 -11 11 -6 -3 -8 -16
-5 -29 5 -21 2 -23 -33 -27 -22 -2 -37 0 -35 3 2 4 -3 9 -11 13 -8 3 -15 16
-15 28 -1 22 -1 23 -15 4 -9 -12 -11 -24 -6 -29 5 -5 4 -18 -3 -32 -13 -29
-63 -30 -58 -1 3 14 -1 16 -20 11 -32 -10 -33 -11 -14 -40 l17 -26 -30 15
c-35 18 -45 20 -36 6 3 -6 -1 -10 -11 -10 -12 0 -15 7 -12 30 3 22 0 30 -10
30 -11 0 -13 8 -9 30 l6 29 -20 -20 c-11 -11 -17 -24 -14 -28 2 -5 -2 -12 -11
-15 -24 -9 -26 -8 -14 13 8 17 5 22 -22 35 -36 19 -48 20 -48 6 0 -5 7 -10 15
-10 8 0 15 -5 15 -11 0 -7 -11 -8 -29 -4 -22 5 -32 2 -39 -11 -9 -15 -13 -16
-26 -5 -11 9 -20 10 -28 4 -15 -12 -59 -2 -59 12 0 5 15 11 32 12 40 4 45 8
29 28 -7 8 -10 20 -8 27 3 7 2 22 -2 33 -9 25 5 55 26 55 8 0 12 5 9 10 -4 6
-12 10 -18 9 -7 -1 -24 3 -38 9 -15 6 -36 8 -48 5 -12 -3 -21 -1 -21 4 0 27
433 49 626 33 119 -10 234 -7 234 5 0 2 -4 15 -9 29 -7 17 -6 26 2 30 7 4 3 5
-9 2 -11 -2 -37 5 -58 15 -20 9 -51 21 -68 24 l-32 7 25 14 c21 11 26 11 37
-3 11 -15 12 -15 12 -1 0 16 61 61 77 56 8 -2 95 27 125 43 10 5 27 9 37 9 11
0 23 5 26 10 3 6 15 10 25 10 23 0 185 73 193 87 4 6 -35 -5 -86 -23 -183 -66
-548 -133 -812 -149 -33 -2 -89 -10 -125 -18 -36 -9 -140 -19 -230 -23 -91 -4
-176 -11 -190 -16 -36 -14 -55 -17 -145 -21 -44 -3 -87 -8 -97 -12 -9 -3 -60
-8 -115 -11 -103 -4 -284 -16 -493 -33 -68 -5 -129 -7 -134 -3 -6 3 -50 5 -98
3 -58 -2 -88 1 -88 8 0 6 19 11 43 11 37 0 46 4 55 25 9 18 19 25 41 25 40 0
61 9 61 27 0 10 6 12 20 8 11 -4 20 -2 20 4 0 6 7 11 16 11 8 0 22 6 30 14 7
8 18 16 24 18 5 1 11 12 13 23 6 44 37 57 37 16 0 -12 9 -20 25 -23 26 -5 34
6 13 19 -7 4 -19 19 -26 31 -11 20 -11 27 2 41 9 10 14 20 11 23 -3 3 1 8 9
11 8 3 20 -1 26 -9 16 -18 40 -18 40 0 0 18 50 52 51 34 0 -7 4 -3 9 10 6 13
15 22 22 21 30 -4 39 2 33 20 -4 15 4 23 37 40 40 19 69 20 38 1 -21 -13 -3
-12 21 1 12 6 18 17 15 25 -4 11 0 15 17 13 35 -3 77 18 77 40 0 38 12 50 56
57 24 3 44 10 44 15 0 5 7 6 16 2 9 -3 21 3 30 16 8 11 24 21 35 21 10 0 19 5
19 10 0 6 11 10 25 10 14 0 25 4 25 9 0 5 13 12 30 16 16 4 33 12 37 20 5 7
37 25 73 39 36 15 73 31 82 36 10 6 24 10 32 10 7 0 19 7 26 15 7 8 20 15 29
15 9 0 30 7 46 16 17 9 46 21 65 29 107 40 246 97 254 105 19 19 -5 23 -39 7
-20 -9 -45 -17 -55 -17 -11 0 -20 -4 -20 -8 0 -5 -32 -13 -71 -20 -40 -6 -75
-16 -80 -23 -4 -7 -26 -13 -48 -15 -22 -1 -58 -11 -80 -22 -21 -11 -57 -24
-78 -28 -21 -3 -45 -12 -53 -19 -8 -7 -41 -18 -73 -24 -31 -6 -67 -16 -80 -23
-12 -7 -26 -13 -32 -14 -10 -1 -32 -8 -73 -25 -13 -5 -30 -9 -38 -9 -8 0 -30
-11 -47 -24 -18 -13 -50 -27 -72 -31 -22 -4 -46 -11 -52 -17 -9 -7 -17 -7 -27
1 -10 9 -16 8 -26 -4 -7 -8 -17 -15 -22 -15 -6 0 -19 -11 -29 -24 -16 -20 -27
-24 -55 -22 -20 2 -39 8 -43 13 -3 6 -15 5 -28 -2 -13 -7 -20 -15 -16 -19 4
-4 -2 -9 -14 -12 -14 -4 -20 -11 -16 -21 4 -11 0 -14 -18 -11 -13 2 -23 9 -22
15 1 6 -6 9 -18 6 -19 -5 -20 -4 -8 15 10 16 20 19 46 15 31 -5 48 10 21 19
-6 2 -8 10 -4 16 4 7 16 10 27 7 12 -4 19 -2 19 7 0 7 28 26 63 42 34 16 64
32 67 36 5 6 54 32 245 128 90 46 96 48 115 51 6 0 10 8 10 16 0 8 5 15 10 15
6 0 10 -4 10 -10 0 -5 5 -10 10 -10 6 0 10 7 10 15 0 10 -10 15 -30 15 -16 0
-30 -4 -30 -10 0 -5 -17 -10 -37 -10 -21 -1 -67 -8 -103 -16 -36 -9 -81 -17
-101 -18 -48 -4 -111 -16 -124 -24 -11 -7 -18 -8 -103 -16 -35 -3 -68 -9 -74
-12 -22 -14 -135 -37 -186 -38 -29 0 -48 -2 -42 -4 5 -2 10 -8 10 -13 0 -15
-32 -10 -51 7 -18 16 -18 18 -1 48 9 17 22 34 27 38 6 5 5 8 -2 8 -7 0 -13 9
-13 19 0 27 107 58 246 71 60 5 145 16 189 24 44 8 100 15 125 15 25 1 54 7
65 14 58 40 426 106 630 113 83 3 170 9 195 14 58 10 214 52 220 59 3 4 18 6
34 6 16 0 31 5 33 10 3 11 -53 12 -80 0 -10 -4 -23 -2 -32 5 -8 6 -19 8 -26 4
-7 -4 -10 -2 -7 7 6 17 52 28 154 35 55 4 84 2 88 -5 4 -6 15 -11 24 -10 14 0
13 2 -3 9 -14 6 -4 8 33 7 30 -1 56 -5 58 -9 3 -4 26 -8 52 -9 26 0 40 -3 32
-7 -8 -4 66 -12 165 -18 99 -6 194 -14 210 -18 29 -7 28 -6 -18 37 -48 45
-111 67 -189 67 -15 0 -28 4 -28 9 0 10 -89 8 -194 -4 -48 -5 -58 -4 -54 7 4
9 -1 14 -13 14 -11 0 -19 -4 -19 -8 0 -4 -5 -8 -11 -8 -5 0 -7 5 -4 10 3 6 -1
10 -9 10 -9 0 -16 5 -16 11 0 8 -4 8 -13 0 -8 -6 -33 -9 -56 -6 -24 2 -52 -2
-62 -8 -13 -8 -22 -9 -27 -2 -4 6 -27 10 -52 10 -59 -1 -66 4 -38 24 18 13 55
17 186 19 94 2 160 8 156 13 -3 5 1 9 10 9 8 0 16 -5 18 -12 4 -12 143 -37
214 -37 23 -1 58 -8 78 -16 20 -9 41 -13 46 -10 15 9 12 45 -5 51 -8 3 -17 21
-21 40 -4 24 -12 34 -25 34 -11 0 -19 -4 -19 -10 0 -17 -29 -11 -47 10 -10 11
-21 20 -25 20 -5 0 -8 -9 -8 -20 0 -12 -7 -20 -17 -20 -12 0 -14 3 -6 11 13
13 3 54 -23 94 -17 27 -17 27 7 47 24 19 24 19 2 13 -20 -5 -23 -2 -23 19 0
14 -4 26 -10 26 -5 0 -10 6 -10 14 0 8 -17 17 -42 21 l-43 8 35 6 c33 6 35 8
32 44 -3 29 0 37 13 37 12 0 15 5 11 16 -3 9 -6 24 -6 35 0 10 -7 19 -15 19
-9 0 -29 14 -45 30 -25 25 -37 30 -80 30 -49 0 -50 -1 -50 -29 0 -16 6 -36 13
-43 37 -41 42 -85 6 -52 -17 15 -19 14 -34 -22 -19 -47 -72 -104 -96 -104 -9
0 -19 -7 -23 -15 -3 -8 -12 -15 -21 -15 -8 0 -15 -4 -15 -9 0 -5 10 -9 23 -9
33 0 89 -8 115 -16 27 -9 29 -26 2 -26 -11 0 -20 5 -20 10 0 15 -26 12 -40 -5
-8 -9 -21 -13 -32 -9 -12 3 -27 -1 -39 -12 -14 -12 -23 -15 -27 -7 -9 14 -197
9 -215 -5 -11 -9 -85 -19 -189 -25 -10 -1 -18 -4 -18 -8 0 -3 -11 -4 -25 -1
-17 3 -48 -7 -90 -28 -35 -18 -71 -30 -80 -27 -9 4 -15 1 -15 -8 0 -18 -12
-19 -27 -4 -17 17 -253 -77 -253 -100 0 -5 -9 -7 -20 -4 -12 3 -20 0 -20 -7 0
-6 -7 -18 -15 -26 -8 -9 -15 -12 -15 -8 0 5 -5 3 -12 -4 -15 -15 -32 -16 -23
-2 3 6 1 10 -4 10 -6 0 -11 -4 -11 -10 0 -5 -9 -10 -19 -10 -11 0 -23 -5 -26
-10 -4 -6 -21 -17 -40 -24 -25 -11 -32 -19 -29 -34 4 -14 0 -19 -15 -18 -37 2
-27 -17 17 -29 23 -7 42 -11 42 -8 0 3 6 0 13 -6 8 -6 17 -8 20 -4 4 3 7 -2 7
-11 0 -13 -6 -17 -20 -13 -11 3 -20 2 -20 -1 0 -4 -4 -13 -9 -21 -8 -13 -12
-13 -26 -1 -13 11 -21 11 -36 2 -14 -9 -25 -10 -40 -1 -14 7 -35 8 -67 1 -26
-5 -60 -9 -77 -9 -16 0 -65 -9 -107 -21 -82 -23 -207 -28 -303 -13 -44 8 -55
6 -101 -20 -59 -34 -106 -37 -141 -9 -14 11 -34 20 -43 20 -10 0 -23 7 -30 15
-7 8 -16 12 -21 9 -18 -11 -29 7 -17 26 10 16 20 18 58 13 25 -3 59 -14 77
-25 36 -21 93 -17 114 8 7 9 31 14 65 14 29 0 56 5 59 11 4 6 22 8 44 4 20 -3
48 -2 61 4 22 8 22 10 5 11 -20 1 -20 1 0 9 11 4 29 6 39 3 20 -5 20 -5 0 -13
-13 -5 -6 -8 25 -8 34 -1 42 2 37 14 -3 8 1 21 9 28 10 11 11 17 2 26 -14 14
-3 25 42 40 46 15 71 14 71 -4 0 -8 -9 -15 -19 -15 -10 0 -21 -7 -25 -15 -3
-9 0 -15 10 -15 8 0 12 -5 8 -11 -4 -8 -1 -8 13 -1 10 6 26 10 35 9 9 -1 17 3
16 8 0 6 -4 9 -9 8 -5 -2 -9 8 -9 22 0 27 24 35 33 11 3 -8 14 -14 24 -14 10
1 28 -2 41 -6 12 -4 22 -3 22 2 0 5 17 12 39 15 51 6 93 27 106 52 6 13 21 20
42 21 33 2 73 27 93 57 9 15 8 23 -4 36 -9 10 -16 23 -16 30 0 19 -31 61 -45
61 -8 0 -17 9 -20 20 -3 11 -12 20 -18 20 -7 0 -20 9 -30 20 -23 27 -30 25
-48 -15 -9 -19 -13 -34 -10 -33 18 2 22 -4 11 -17 -10 -12 -9 -15 5 -15 14 0
15 -3 5 -15 -11 -14 -7 -19 13 -16 4 0 7 -4 7 -9 0 -10 -14 -14 -37 -11 -8 1
-13 -9 -13 -24 0 -14 5 -25 11 -25 6 0 9 -9 6 -20 -3 -11 -1 -23 4 -26 12 -7
11 -24 -1 -24 -5 0 -10 7 -10 15 0 21 -13 19 -44 -9 -23 -19 -39 -23 -94 -24
-37 0 -92 -5 -122 -10 -36 -7 -61 -6 -73 0 -32 17 -62 2 -64 -30 -4 -58 -12
-72 -45 -72 -12 0 -15 5 -11 16 4 11 0 15 -13 13 -26 -3 -50 9 -87 42 -21 20
-47 31 -79 35 -26 4 -48 10 -48 15 0 5 -7 9 -15 9 -18 0 -18 -5 -5 -31 6 -10
19 -19 30 -19 10 0 22 -4 25 -10 3 -5 13 -10 21 -10 20 0 39 -20 48 -48 7 -20
4 -22 -33 -24 -23 -1 -49 -2 -58 -2 -10 -1 -23 -7 -28 -14 -9 -11 -23 -5 -68
29 -31 23 -57 46 -57 51 0 5 -4 7 -9 3 -12 -7 -51 43 -51 66 0 10 9 23 20 29
11 6 20 8 20 5 0 -3 9 -1 20 5 11 6 20 19 20 30 0 25 32 80 46 80 15 0 26 -28
15 -35 -5 -3 -7 -14 -4 -25 8 -32 38 -20 38 14 0 16 6 31 13 33 6 3 9 10 6 15
-4 6 -3 8 3 5 5 -3 21 5 36 19 26 24 27 24 39 4 13 -20 13 -20 29 1 13 18 19
20 37 10 12 -7 22 -8 22 -4 0 5 25 13 55 19 50 9 54 8 57 -10 5 -34 28 -31 28
4 0 28 2 31 23 24 38 -13 61 -6 89 26 15 16 34 30 42 30 8 0 18 5 21 11 4 6
13 8 21 5 8 -3 14 -2 14 2 0 7 37 20 171 62 14 4 38 6 52 3 15 -3 27 -1 27 5
0 5 19 9 42 8 34 -2 47 3 66 23 21 22 33 26 90 28 37 1 69 2 71 2 2 1 -2 8 -9
16 -27 32 19 48 53 18 20 -18 20 -17 14 15 -6 27 -4 32 12 32 11 0 21 -4 23
-8 4 -12 68 -24 68 -13 0 5 8 8 17 7 12 0 19 7 21 22 4 23 37 32 44 10 2 -6
10 -8 16 -4 7 4 10 15 7 25 -5 18 -9 18 183 20 77 0 102 3 100 13 -2 9 10 12
42 10 39 -2 43 -1 25 10 -27 17 -366 23 -376 7 -5 -8 -15 -9 -36 -1 -20 7 -35
6 -48 -1 -10 -5 -34 -10 -52 -9 -22 1 -33 -3 -33 -12 0 -8 -14 -15 -34 -18
-27 -3 -33 -1 -29 12 3 9 -3 6 -15 -7 -11 -12 -32 -25 -48 -28 -20 -5 -25 -4
-15 3 9 7 0 11 -33 16 -44 7 -163 -17 -221 -44 -11 -5 -45 -19 -75 -31 -30
-11 -101 -44 -157 -71 -56 -28 -107 -48 -113 -46 -6 2 35 25 92 52 57 26 105
51 108 55 3 3 32 17 65 30 33 13 74 29 90 36 17 7 62 23 100 36 l70 23 -40 9
c-45 9 -345 3 -443 -10 -35 -5 -66 -5 -68 -1 -3 4 -13 4 -22 -1 -10 -5 -30 -7
-45 -4 -15 3 -34 0 -43 -8 -15 -12 -16 -11 -10 9 l7 22 -208 -1 -208 -1 -110
-58z m476 -14 c-6 -7 -37 -21 -69 -30 -71 -22 -86 -27 -142 -54 -25 -12 -70
-31 -100 -42 -30 -12 -80 -40 -110 -63 -36 -27 -48 -32 -35 -16 11 13 25 28
30 32 6 5 -8 6 -30 2 -45 -8 -105 -36 -124 -59 -12 -14 -10 -16 10 -17 33 -2
31 -2 59 6 21 5 20 3 -8 -14 -45 -29 -68 -27 -76 5 -12 47 58 94 164 110 30 4
60 8 65 9 6 1 15 3 21 3 6 1 21 11 34 22 13 11 30 20 39 20 9 0 26 7 37 15 27
18 114 53 179 70 65 18 70 18 56 1z m1997 -101 c-3 -3 -9 2 -12 12 -6 14 -5
15 5 6 7 -7 10 -15 7 -18z m-8 -75 c0 -5 -2 -10 -4 -10 -3 0 -8 5 -11 10 -3 6
-1 10 4 10 6 0 11 -4 11 -10z m50 0 c0 -5 -4 -10 -10 -10 -5 0 -10 5 -10 10 0
6 5 10 10 10 6 0 10 -4 10 -10z m-82 -12 c-6 -18 -28 -21 -28 -4 0 9 7 16 16
16 9 0 14 -5 12 -12z m-1833 -28 c-3 -5 -11 -10 -16 -10 -6 0 -7 5 -4 10 3 6
11 10 16 10 6 0 7 -4 4 -10z m1823 -42 c-5 -16 -58 -24 -58 -9 0 8 13 13 53
20 5 0 7 -5 5 -11z m47 -25 c-9 -8 -18 -13 -21 -10 -8 8 19 36 29 30 4 -2 0
-11 -8 -20z m-2290 -64 c-3 -8 -15 -20 -26 -27 -19 -12 -19 -11 2 17 23 31 34
35 24 10z m1985 -36 c0 -8 4 -12 8 -9 5 3 9 -1 9 -9 0 -20 -29 -28 -106 -30
-56 -1 -65 -4 -72 -23 -11 -29 -43 -30 -36 -2 5 18 0 20 -39 20 -38 0 -45 -4
-59 -29 -12 -23 -21 -29 -45 -29 -17 1 -34 6 -37 11 -4 6 5 8 25 4 38 -8 43 9
7 25 -52 24 -17 50 86 64 42 6 52 4 64 -12 12 -16 14 -17 15 -3 0 16 57 35 88
30 6 -1 19 2 28 7 22 12 64 3 64 -15z m247 -29 c-3 -3 -12 -4 -19 -1 -8 3 -5
6 6 6 11 1 17 -2 13 -5z m-407 -84 c0 -6 -11 -8 -25 -4 -16 4 -25 2 -25 -6 0
-6 -4 -8 -10 -5 -21 13 -9 25 25 25 19 0 35 -5 35 -10z m-93 -45 c-10 -21 -37
-36 -37 -19 0 15 22 44 34 44 11 0 12 -5 3 -25z m-447 -6 c0 -5 -7 -9 -15 -9
-15 0 -20 12 -9 23 8 8 24 -1 24 -14z m-1405 2 c3 -5 1 -12 -5 -16 -5 -3 -10
1 -10 9 0 18 6 21 15 7z m572 -27 c-3 -3 -12 -4 -19 -1 -8 3 -5 6 6 6 11 1 17
-2 13 -5z m1153 -14 c0 -5 -4 -10 -10 -10 -5 0 -10 5 -10 10 0 6 5 10 10 10 6
0 10 -4 10 -10z m100 0 c0 -5 -4 -10 -10 -10 -5 0 -10 5 -10 10 0 6 5 10 10
10 6 0 10 -4 10 -10z m-620 -9 c0 -5 -14 -14 -31 -20 -39 -13 -39 -13 -39 -1
0 5 15 14 33 19 17 5 33 10 35 10 1 1 2 -3 2 -8z m-75 -41 c3 -6 -1 -7 -9 -4
-18 7 -21 14 -7 14 6 0 13 -4 16 -10z m110 -11 c6 -9 -21 -38 -36 -39 -9 0
-18 37 -11 44 9 10 40 7 47 -5z m125 -15 c0 -8 -4 -12 -10 -9 -5 3 -10 10 -10
16 0 5 5 9 10 9 6 0 10 -7 10 -16z m-1420 -18 c0 -3 -4 -8 -10 -11 -5 -3 -10
-1 -10 4 0 6 5 11 10 11 6 0 10 -2 10 -4z m-170 -110 c0 -13 -7 -29 -15 -36
-17 -14 -20 -3 -9 38 8 29 24 28 24 -2z m-79 -69 c-1 -12 -15 -9 -19 4 -3 6 1
10 8 8 6 -3 11 -8 11 -12z m664 -75 c-10 -7 -28 -36 -53 -84 -7 -16 -18 -28
-23 -28 -5 0 -14 -12 -19 -26 -15 -38 -42 -27 -52 20 -5 25 -4 43 3 52 25 31
0 31 -49 0 -29 -17 -49 -35 -46 -39 4 -4 -6 -7 -23 -7 -17 0 -36 -7 -43 -15
-16 -19 -60 -20 -60 -2 0 8 13 33 30 55 28 39 32 41 55 30 21 -9 28 -8 38 4
15 19 91 30 106 15 8 -8 14 -7 23 5 7 9 20 18 28 21 23 8 96 8 85 -1z m-515
-82 c0 -5 -5 -10 -11 -10 -5 0 -7 5 -4 10 3 6 8 10 11 10 2 0 4 -4 4 -10z m37
4 c-3 -3 -12 -4 -19 -1 -8 3 -5 6 6 6 11 1 17 -2 13 -5z m627 -608 l26 -13
-37 -6 c-43 -7 -50 -4 -32 17 17 19 12 18 43 2z m-294 -176 c0 -5 -4 -10 -10
-10 -5 0 -10 5 -10 10 0 6 5 10 10 10 6 0 10 -4 10 -10z m1197 -103 c4 -6 -4
-8 -21 -5 -18 4 -29 0 -36 -11 -4 -9 -11 -13 -15 -9 -3 3 -1 15 6 25 12 21 53
21 66 0z m33 -17 c0 -5 -2 -10 -4 -10 -3 0 -8 5 -11 10 -3 6 -1 10 4 10 6 0
11 -4 11 -10z m-80 -35 c0 -8 -4 -15 -10 -15 -5 0 -10 7 -10 15 0 8 5 15 10
15 6 0 10 -7 10 -15z m-380 -11 c0 -2 -7 -4 -15 -4 -8 0 -15 4 -15 10 0 5 7 7
15 4 8 -4 15 -8 15 -10z m204 -6 c-3 -10 -1 -18 5 -18 6 0 11 -8 11 -17 0 -13
-5 -11 -18 10 -9 15 -25 27 -34 27 -10 0 -18 4 -18 10 0 5 13 8 30 7 23 -2 29
-6 24 -19z m502 7 c4 -8 3 -26 0 -39 -5 -19 -10 -23 -28 -18 l-23 7 23 3 c14
2 22 10 22 22 0 13 -5 17 -15 14 -9 -4 -15 0 -15 10 0 20 29 21 36 1z m-586
-5 c0 -5 -2 -10 -4 -10 -3 0 -8 5 -11 10 -3 6 -1 10 4 10 6 0 11 -4 11 -10z
m150 -14 c0 -3 -4 -8 -10 -11 -5 -3 -10 -1 -10 4 0 6 5 11 10 11 6 0 10 -2 10
-4z m-220 -28 c0 -6 6 -8 13 -5 15 6 35 -34 41 -81 2 -18 11 -41 21 -52 28
-31 11 -23 -26 12 -23 20 -30 33 -21 36 14 4 -3 37 -39 73 -19 19 -19 19 -19
-2 0 -11 -4 -18 -10 -14 -14 9 10 54 26 48 8 -3 14 -10 14 -15z m139 6 c2 -2
2 -6 0 -9 -8 -7 -49 7 -49 17 0 8 38 2 49 -8z m-199 -11 c0 -6 -9 -9 -20 -6
-30 8 -33 21 -5 19 14 0 25 -6 25 -13z m423 10 c-7 -2 -19 -2 -25 0 -7 3 -2 5
12 5 14 0 19 -2 13 -5z m217 -3 c0 -5 -2 -10 -4 -10 -3 0 -8 5 -11 10 -3 6 -1
10 4 10 6 0 11 -4 11 -10z m-500 -20 c0 -5 -4 -10 -10 -10 -5 0 -10 5 -10 10
0 6 5 10 10 10 6 0 10 -4 10 -10z m32 -38 c-16 -3 -19 -9 -16 -30 3 -15 12
-31 20 -35 8 -4 14 -12 14 -17 0 -18 -25 -10 -49 16 -19 20 -22 27 -11 34 7 4
11 17 7 29 -3 12 -1 21 4 21 5 0 9 8 9 18 1 14 4 13 22 -8 l20 -25 -20 -3z
m154 1 c-7 -8 -56 9 -51 18 3 4 17 3 30 -3 14 -6 23 -13 21 -15z m-296 -4 c0
6 5 11 10 11 16 0 11 -27 -6 -34 -27 -10 -34 -7 -34 15 0 18 2 19 15 9 10 -9
15 -9 15 -1z m360 -34 c0 -30 -2 -34 -14 -23 -9 9 -11 17 -4 25 5 7 7 17 3 23
-3 5 -1 10 4 10 6 0 11 -16 11 -35z m137 13 c-3 -14 -14 -25 -30 -29 -15 -4
-27 -6 -27 -4 0 2 -3 11 -6 20 -5 13 -2 15 20 9 19 -4 27 -2 32 10 9 23 14 20
11 -6z m133 10 c0 -4 -6 -8 -14 -8 -8 0 -17 4 -20 8 -2 4 4 8 15 8 10 0 19 -4
19 -8z m-680 -7 c0 -6 -4 -13 -10 -16 -5 -3 -10 1 -10 9 0 9 5 16 10 16 6 0
10 -4 10 -9z m95 -1 c3 -5 1 -10 -4 -10 -6 0 -11 5 -11 10 0 6 2 10 4 10 3 0
8 -4 11 -10z m159 -18 c17 -1 32 -6 35 -10 3 -4 22 -18 41 -30 19 -12 30 -22
24 -22 -16 0 -64 24 -64 33 0 13 -28 7 -34 -8 -3 -8 -13 -15 -23 -14 -17 0
-17 1 -1 12 15 10 15 12 -4 21 -12 6 -24 18 -26 26 -4 12 -2 13 9 4 8 -6 27
-11 43 -12z m100 -7 c3 -9 0 -12 -9 -9 -7 3 -16 12 -19 19 -3 9 0 12 9 9 7 -3
16 -12 19 -19z m106 7 c0 -13 -12 -22 -22 -16 -10 6 -1 24 13 24 5 0 9 -4 9
-8z m790 -11 c0 -6 -4 -13 -10 -16 -5 -3 -10 1 -10 9 0 9 5 16 10 16 6 0 10
-4 10 -9z m-1146 -16 c3 -10 -1 -15 -13 -15 -10 0 -24 7 -31 15 -11 13 -9 15
13 15 14 0 27 -7 31 -15z m199 -32 c-7 -2 -19 -2 -25 0 -7 3 -2 5 12 5 14 0
19 -2 13 -5z m-1517 -79 c-6 -16 -26 -19 -26 -5 0 5 5 22 12 38 11 27 12 27
16 5 2 -13 1 -30 -2 -38z m2714 23 c0 -22 36 -49 92 -68 29 -10 45 -18 34 -19
-29 0 -90 20 -113 39 -24 18 -40 61 -24 61 6 0 11 -6 11 -13z m324 -38 c-12
-19 -88 -49 -124 -48 -29 1 -26 3 21 13 31 6 67 19 80 28 29 20 32 21 23 7z
m-1647 -199 c-4 -35 -17 -53 -17 -22 0 21 9 52 16 52 2 0 2 -14 1 -30z m10
-113 c9 -31 9 -44 1 -52 -8 -7 -9 -5 -5 7 3 9 2 18 -3 20 -4 2 -12 21 -15 43
-9 50 5 38 22 -18z m-1217 -309 c0 -5 13 -7 29 -3 19 4 34 1 44 -9 9 -9 23
-16 31 -16 8 0 31 -9 51 -20 19 -11 52 -30 73 -41 45 -26 102 -75 96 -83 -2
-3 -1 -4 2 -1 11 8 64 -36 64 -53 0 -11 3 -13 8 -5 5 8 13 8 32 -2 14 -7 24
-17 23 -22 -1 -4 5 -7 13 -7 8 1 14 -7 14 -17 0 -21 16 -26 22 -8 7 21 48 -9
45 -33 -2 -17 4 -22 26 -23 31 -2 70 -33 63 -51 -3 -7 2 -10 13 -7 26 7 36
-36 13 -53 -10 -7 -19 -8 -23 -3 -3 5 -13 7 -22 3 -9 -3 -17 -2 -17 4 0 5 -9
12 -20 15 -11 3 -20 1 -20 -4 0 -5 -16 -19 -35 -31 -19 -13 -35 -30 -35 -38 0
-10 -5 -7 -16 8 -8 12 -13 26 -10 30 3 5 -9 19 -26 32 -21 15 -33 19 -36 12
-5 -16 -27 -15 -60 2 -36 19 -95 8 -100 -18 -2 -10 0 -16 5 -13 15 10 34 -9
27 -26 -3 -9 -10 -17 -15 -17 -4 0 -6 6 -3 14 6 16 -22 29 -46 21 -10 -3 -36
6 -59 22 -24 15 -38 29 -32 31 6 2 11 8 11 14 0 6 -7 8 -15 4 -8 -3 -21 3 -28
15 -8 11 -20 17 -28 15 -18 -7 -53 19 -45 33 4 5 2 12 -4 16 -5 3 -10 1 -10
-6 0 -7 -2 -10 -5 -7 -3 3 -1 25 4 49 11 48 3 75 -12 38 l-9 -24 -14 31 c-8
20 -27 38 -51 49 -21 10 -43 24 -48 32 -6 7 -21 12 -35 11 -21 -3 -25 2 -33
41 -8 41 -7 45 20 67 15 13 36 23 46 24 9 0 17 5 17 11 0 6 6 9 13 6 6 -2 20
-1 31 2 24 9 76 1 76 -11z m2455 -18 c3 -5 1 -10 -4 -10 -6 0 -11 5 -11 10 0
6 2 10 4 10 3 0 8 -4 11 -10z m215 -81 c0 -11 -12 -11 -35 -3 -12 5 -14 9 -4
14 14 9 39 2 39 -11z m-2095 -219 c3 -5 1 -10 -4 -10 -6 0 -11 5 -11 10 0 6 2
10 4 10 3 0 8 -4 11 -10z m-255 -140 c0 -5 -4 -10 -10 -10 -5 0 -10 5 -10 10
0 6 5 10 10 10 6 0 10 -4 10 -10z m238 -57 c-4 -20 -18 -26 -37 -14 -18 12 -5
31 20 31 14 0 19 -6 17 -17z m99 -30 c3 -7 -8 -15 -24 -18 -15 -4 -40 -13 -54
-21 -24 -12 -28 -12 -33 1 -3 9 -18 15 -36 15 -16 0 -30 4 -30 8 0 10 62 8 78
-2 7 -4 24 2 39 14 28 22 54 23 60 3z m-6 -65 c-4 -42 -4 -42 -12 -14 -5 19
-4 35 3 43 14 18 14 18 9 -29z m-975 -265 c-10 -10 -19 5 -10 18 6 11 8 11 12
0 2 -7 1 -15 -2 -18z"/>
<path d="M1183 626 c9 -7 17 -21 17 -30 0 -25 17 -11 22 19 5 22 2 25 -26 25
-28 -1 -29 -2 -13 -14z"/>
<path d="M2170 3764 c0 -8 11 -32 25 -52 17 -25 25 -50 25 -79 0 -48 6 -54 38
-42 27 10 28 30 2 54 -24 22 -26 55 -4 55 11 0 14 -6 10 -17 -6 -17 -5 -17 8
0 19 25 23 22 31 -25 9 -55 14 -62 31 -47 8 6 32 13 55 14 48 4 84 26 92 55 6
25 -17 37 -98 50 -27 5 -62 12 -77 16 -17 4 -28 2 -28 -4 0 -6 10 -13 23 -15
12 -2 1 -5 -25 -6 -30 -1 -52 4 -62 15 -9 8 -21 12 -27 8 -8 -4 -9 0 -4 15 4
12 2 21 -4 21 -6 0 -11 -7 -11 -16z"/>
<path d="M1784 3689 c-7 -12 53 -75 63 -65 3 3 -8 21 -25 40 -19 22 -34 31
-38 25z"/>
<path d="M1881 3673 c-7 -52 -2 -74 22 -102 l26 -31 -6 37 c-4 26 -3 34 5 29
7 -4 12 -12 12 -17 0 -6 7 -17 16 -26 10 -10 13 -25 9 -44 -6 -27 -5 -28 30
-27 24 1 41 8 51 22 8 11 14 16 15 11 0 -6 5 3 9 19 11 37 1 55 -17 31 -12
-18 -13 -18 -13 2 0 16 -5 19 -25 15 -14 -2 -25 -11 -25 -21 0 -9 -11 5 -23
30 -24 46 -60 89 -75 89 -5 0 -10 -8 -11 -17z"/>
<path d="M2170 3666 c0 -28 14 -35 23 -12 3 8 -1 20 -9 26 -12 10 -14 8 -14
-14z"/>
<path d="M2138 3640 c-7 -24 -3 -38 8 -28 3 4 4 17 2 30 l-3 23 -7 -25z"/>
<path d="M3360 3640 c0 -5 5 -10 11 -10 5 0 7 5 4 10 -3 6 -8 10 -11 10 -2 0
-4 -4 -4 -10z"/>
<path d="M2000 3629 c0 -5 5 -7 10 -4 6 3 10 8 10 11 0 2 -4 4 -10 4 -5 0 -10
-5 -10 -11z"/>
<path d="M1687 3574 c-7 -8 13 -54 25 -54 9 0 10 7 2 38 -6 22 -15 27 -27 16z"/>
<path d="M1400 3535 c0 -14 -4 -25 -10 -25 -5 0 -10 -9 -10 -20 0 -11 -4 -20
-9 -20 -5 0 -13 9 -16 20 -3 11 -11 20 -16 20 -14 0 -11 -15 9 -38 16 -18 22
-19 43 -9 19 10 24 21 25 55 0 23 -3 42 -8 42 -4 0 -8 -11 -8 -25z"/>
<path d="M1045 3477 c-4 -10 -5 -21 -1 -24 10 -10 18 4 13 24 -4 17 -4 17 -12
0z"/>
<path d="M1355 3430 c-25 -6 -27 -8 -12 -15 12 -5 24 -2 35 9 9 9 14 15 12 15
-3 -1 -18 -5 -35 -9z"/>
<path d="M960 3420 c0 -5 12 -10 26 -10 14 0 23 4 19 10 -3 6 -15 10 -26 10
-10 0 -19 -4 -19 -10z"/>
<path d="M1455 3390 c-3 -5 -1 -10 4 -10 6 0 11 5 11 10 0 6 -2 10 -4 10 -3 0
-8 -4 -11 -10z"/>
<path d="M1520 3320 c0 -5 5 -10 11 -10 5 0 7 5 4 10 -3 6 -8 10 -11 10 -2 0
-4 -4 -4 -10z"/>
<path d="M3163 3323 c9 -2 23 -2 30 0 6 3 -1 5 -18 5 -16 0 -22 -2 -12 -5z"/>
<path d="M2975 3310 c-16 -7 -17 -9 -3 -9 9 -1 20 4 23 9 7 11 7 11 -20 0z"/>
<path d="M3048 3313 c6 -2 18 -2 25 0 6 3 1 5 -13 5 -14 0 -19 -2 -12 -5z"/>
<path d="M1550 3291 c0 -6 4 -12 8 -15 5 -3 9 1 9 9 0 8 -4 15 -9 15 -4 0 -8
-4 -8 -9z"/>
<path d="M1655 3220 c3 -5 13 -10 21 -10 8 0 14 5 14 10 0 6 -9 10 -21 10 -11
0 -17 -4 -14 -10z"/>
<path d="M1430 2365 c0 -5 5 -17 10 -25 5 -8 10 -10 10 -5 0 6 -5 17 -10 25
-5 8 -10 11 -10 5z"/>
<path d="M2630 2065 c0 -8 9 -15 20 -15 11 0 20 2 20 5 0 2 -9 9 -20 15 -16 9
-20 8 -20 -5z"/>
<path d="M2590 2056 c0 -9 5 -16 10 -16 6 0 10 4 10 9 0 6 -4 13 -10 16 -5 3
-10 -1 -10 -9z"/>
<path d="M2728 2033 c7 -3 16 -2 19 1 4 3 -2 6 -13 5 -11 0 -14 -3 -6 -6z"/>
<path d="M2550 1990 c0 -5 5 -10 11 -10 5 0 7 5 4 10 -3 6 -8 10 -11 10 -2 0
-4 -4 -4 -10z"/>
<path d="M3858 1977 c-105 -19 -118 -24 -118 -42 0 -11 5 -68 10 -128 10 -98
9 -110 -9 -145 -19 -37 -19 -38 0 -61 10 -13 19 -31 19 -41 0 -11 20 -29 53
-48 55 -31 88 -64 132 -130 55 -83 55 -83 55 283 0 262 -3 335 -12 334 -7 -1
-66 -11 -130 -22z"/>
<path d="M2591 1956 c-13 -15 -9 -20 33 -35 30 -12 32 -9 9 14 -14 14 -14 18
-2 26 11 7 9 9 -7 9 -12 0 -27 -6 -33 -14z"/>
<path d="M2957 1906 c-6 -15 19 -43 29 -33 8 8 -5 47 -16 47 -4 0 -10 -6 -13
-14z"/>
<path d="M2560 1889 c0 -5 5 -7 10 -4 6 3 10 8 10 11 0 2 -4 4 -10 4 -5 0 -10
-5 -10 -11z"/>
<path d="M3620 1530 c0 -5 7 -10 15 -10 8 0 15 5 15 10 0 6 -7 10 -15 10 -8 0
-15 -4 -15 -10z"/>
<path d="M3548 1523 c7 -3 16 -2 19 1 4 3 -2 6 -13 5 -11 0 -14 -3 -6 -6z"/>
</g>
</svg>
